# xmcd CD database file
#
# Track frame offsets:
#	150
#	21047
#	36504
#	62017
#	92260
#	111800
#	132172
#	154850
#	172664
#	189557
#	207811
#	229414
#	253648
#
# Disc length: 3783 seconds
#
# Revision: 0
# Processed by: cddbd v1.5.1PL0 Copyright (c) Steve Scherf et al.
# Submitted via: CDex 1.51
#
DISCID=a40ec50d
DTITLE=John Lee Hooker - The Best Of Friends
DYEAR=1998
DGENRE=Blues
TTITLE0=Boogie Chillen
TTITLE1=This Is Hip
TTITLE2=The Healer
TTITLE3=I Cover The Waterfront
TTITLE4=Boom Boom
TTITLE5=I'm In The Mood
TTITLE6=Burnin' Hell
TTITLE7=Tupelo
TTITLE8=Baby Lee
TTITLE9=Dimples
TTITLE10=Chill Out (Things Gonna Change)
TTITLE11=Big Legs Tight Skirt
TTITLE12=Don't Look Back
EXTD=YEAR: 1998
EXTT0=
EXTT1=
EXTT2=
EXTT3=
EXTT4=
EXTT5=
EXTT6=
EXTT7=
EXTT8=
EXTT9=
EXTT10=
EXTT11=
EXTT12=
PLAYORDER=
